<mxfile host="app.diagrams.net" modified="2021-10-28T04:23:06.535Z" agent="5.0 (Windows NT 10.0; Win64; x64) AppleWebKit/537.36 (KHTML, like Gecko) Chrome/95.0.4638.54 Safari/537.36" etag="3pf5hSeTfh4q8Gj0026I" version="15.4.1" type="github">
  <diagram id="DBrm9fMGrtDZNjOXUanD" name="Page-1">
    <mxGraphModel dx="1422" dy="737" grid="1" gridSize="10" guides="1" tooltips="1" connect="1" arrows="1" fold="1" page="1" pageScale="1" pageWidth="850" pageHeight="1100" math="0" shadow="0">
      <root>
        <mxCell id="0" />
        <mxCell id="1" parent="0" />
        <mxCell id="tBbX4ZN0eCfmYOymshVq-1" value="&lt;font style=&quot;font-size: 24px&quot;&gt;Solar Cell&lt;/font&gt;" style="rounded=0;whiteSpace=wrap;html=1;strokeWidth=2;" vertex="1" parent="1">
          <mxGeometry x="80" y="40" width="160" height="80" as="geometry" />
        </mxCell>
        <mxCell id="tBbX4ZN0eCfmYOymshVq-2" value="&lt;font style=&quot;font-size: 24px&quot;&gt;Controller&lt;/font&gt;" style="rounded=0;whiteSpace=wrap;html=1;strokeWidth=2;" vertex="1" parent="1">
          <mxGeometry x="80" y="160" width="160" height="80" as="geometry" />
        </mxCell>
        <mxCell id="tBbX4ZN0eCfmYOymshVq-3" value="&lt;font style=&quot;font-size: 24px&quot;&gt;Battery 12V&lt;/font&gt;" style="rounded=0;whiteSpace=wrap;html=1;strokeWidth=2;" vertex="1" parent="1">
          <mxGeometry x="80" y="280" width="160" height="80" as="geometry" />
        </mxCell>
        <mxCell id="tBbX4ZN0eCfmYOymshVq-5" value="&lt;font style=&quot;font-size: 24px&quot;&gt;Timer&lt;/font&gt;" style="rounded=0;whiteSpace=wrap;html=1;strokeWidth=2;" vertex="1" parent="1">
          <mxGeometry x="320" y="280" width="160" height="80" as="geometry" />
        </mxCell>
        <mxCell id="tBbX4ZN0eCfmYOymshVq-6" value="&lt;font style=&quot;font-size: 24px&quot;&gt;Relay&lt;/font&gt;" style="rounded=0;whiteSpace=wrap;html=1;strokeWidth=2;" vertex="1" parent="1">
          <mxGeometry x="520" y="280" width="160" height="80" as="geometry" />
        </mxCell>
        <mxCell id="tBbX4ZN0eCfmYOymshVq-7" value="M" style="ellipse;whiteSpace=wrap;html=1;aspect=fixed;fontSize=24;strokeWidth=2;" vertex="1" parent="1">
          <mxGeometry x="720" y="120" width="80" height="80" as="geometry" />
        </mxCell>
        <mxCell id="tBbX4ZN0eCfmYOymshVq-8" value="" style="endArrow=none;html=1;rounded=0;fontSize=24;edgeStyle=orthogonalEdgeStyle;entryX=0;entryY=0.5;entryDx=0;entryDy=0;exitX=1;exitY=0.25;exitDx=0;exitDy=0;strokeWidth=2;strokeColor=#FF0000;" edge="1" parent="1" source="tBbX4ZN0eCfmYOymshVq-6" target="tBbX4ZN0eCfmYOymshVq-7">
          <mxGeometry width="50" height="50" relative="1" as="geometry">
            <mxPoint x="400" y="400" as="sourcePoint" />
            <mxPoint x="450" y="350" as="targetPoint" />
          </mxGeometry>
        </mxCell>
        <mxCell id="tBbX4ZN0eCfmYOymshVq-9" value="" style="endArrow=none;html=1;rounded=0;fontSize=24;strokeWidth=2;edgeStyle=orthogonalEdgeStyle;entryX=0.25;entryY=1;entryDx=0;entryDy=0;exitX=0.25;exitY=0;exitDx=0;exitDy=0;strokeColor=#FF0000;" edge="1" parent="1" source="tBbX4ZN0eCfmYOymshVq-2" target="tBbX4ZN0eCfmYOymshVq-1">
          <mxGeometry width="50" height="50" relative="1" as="geometry">
            <mxPoint x="400" y="400" as="sourcePoint" />
            <mxPoint x="450" y="350" as="targetPoint" />
          </mxGeometry>
        </mxCell>
        <mxCell id="tBbX4ZN0eCfmYOymshVq-10" value="" style="endArrow=none;html=1;rounded=0;fontSize=24;strokeWidth=2;edgeStyle=orthogonalEdgeStyle;entryX=0.25;entryY=1;entryDx=0;entryDy=0;exitX=0.25;exitY=0;exitDx=0;exitDy=0;" edge="1" parent="1">
          <mxGeometry width="50" height="50" relative="1" as="geometry">
            <mxPoint x="200" y="160" as="sourcePoint" />
            <mxPoint x="200" y="120" as="targetPoint" />
          </mxGeometry>
        </mxCell>
        <mxCell id="tBbX4ZN0eCfmYOymshVq-11" value="" style="endArrow=none;html=1;rounded=0;fontSize=24;strokeWidth=2;edgeStyle=orthogonalEdgeStyle;entryX=0.25;entryY=1;entryDx=0;entryDy=0;strokeColor=#FF0000;" edge="1" parent="1" target="tBbX4ZN0eCfmYOymshVq-2">
          <mxGeometry width="50" height="50" relative="1" as="geometry">
            <mxPoint x="120" y="280" as="sourcePoint" />
            <mxPoint x="330" y="250" as="targetPoint" />
          </mxGeometry>
        </mxCell>
        <mxCell id="tBbX4ZN0eCfmYOymshVq-12" value="" style="endArrow=none;html=1;rounded=0;fontSize=24;strokeWidth=2;edgeStyle=orthogonalEdgeStyle;entryX=0.75;entryY=1;entryDx=0;entryDy=0;exitX=0.75;exitY=0;exitDx=0;exitDy=0;" edge="1" parent="1" source="tBbX4ZN0eCfmYOymshVq-3" target="tBbX4ZN0eCfmYOymshVq-2">
          <mxGeometry width="50" height="50" relative="1" as="geometry">
            <mxPoint x="180" y="260" as="sourcePoint" />
            <mxPoint x="180" y="220" as="targetPoint" />
          </mxGeometry>
        </mxCell>
        <mxCell id="tBbX4ZN0eCfmYOymshVq-13" value="" style="endArrow=none;html=1;rounded=0;fontSize=24;strokeWidth=2;edgeStyle=orthogonalEdgeStyle;exitX=0;exitY=0.75;exitDx=0;exitDy=0;strokeColor=#FF0000;" edge="1" parent="1" source="tBbX4ZN0eCfmYOymshVq-5">
          <mxGeometry width="50" height="50" relative="1" as="geometry">
            <mxPoint x="280" y="300" as="sourcePoint" />
            <mxPoint x="120" y="260" as="targetPoint" />
            <Array as="points">
              <mxPoint x="280" y="340" />
              <mxPoint x="280" y="400" />
              <mxPoint x="60" y="400" />
            </Array>
          </mxGeometry>
        </mxCell>
        <mxCell id="tBbX4ZN0eCfmYOymshVq-14" value="" style="endArrow=none;html=1;rounded=0;fontSize=24;strokeWidth=2;edgeStyle=orthogonalEdgeStyle;entryX=1;entryY=0.5;entryDx=0;entryDy=0;" edge="1" parent="1" target="tBbX4ZN0eCfmYOymshVq-7">
          <mxGeometry width="50" height="50" relative="1" as="geometry">
            <mxPoint x="200" y="260" as="sourcePoint" />
            <mxPoint x="790" y="400" as="targetPoint" />
            <Array as="points">
              <mxPoint x="260" y="260" />
              <mxPoint x="260" y="440" />
              <mxPoint x="820" y="440" />
              <mxPoint x="820" y="160" />
            </Array>
          </mxGeometry>
        </mxCell>
        <mxCell id="tBbX4ZN0eCfmYOymshVq-15" value="" style="endArrow=none;html=1;rounded=0;fontSize=24;strokeWidth=2;edgeStyle=orthogonalEdgeStyle;entryX=1;entryY=0.75;entryDx=0;entryDy=0;strokeColor=#FF0000;" edge="1" parent="1" target="tBbX4ZN0eCfmYOymshVq-6">
          <mxGeometry width="50" height="50" relative="1" as="geometry">
            <mxPoint x="280" y="400" as="sourcePoint" />
            <mxPoint x="440" y="250" as="targetPoint" />
            <Array as="points">
              <mxPoint x="700" y="400" />
              <mxPoint x="700" y="340" />
            </Array>
          </mxGeometry>
        </mxCell>
        <mxCell id="tBbX4ZN0eCfmYOymshVq-16" value="" style="endArrow=none;html=1;rounded=0;fontSize=24;strokeColor=#000000;strokeWidth=2;edgeStyle=orthogonalEdgeStyle;" edge="1" parent="1">
          <mxGeometry width="50" height="50" relative="1" as="geometry">
            <mxPoint x="260" y="300" as="sourcePoint" />
            <mxPoint x="320" y="300" as="targetPoint" />
          </mxGeometry>
        </mxCell>
        <mxCell id="tBbX4ZN0eCfmYOymshVq-17" value="" style="endArrow=none;html=1;rounded=0;fontSize=24;strokeColor=#000000;strokeWidth=2;edgeStyle=orthogonalEdgeStyle;" edge="1" parent="1">
          <mxGeometry width="50" height="50" relative="1" as="geometry">
            <mxPoint x="480" y="340" as="sourcePoint" />
            <mxPoint x="520" y="340" as="targetPoint" />
          </mxGeometry>
        </mxCell>
        <mxCell id="tBbX4ZN0eCfmYOymshVq-18" value="" style="endArrow=none;html=1;rounded=0;fontSize=24;strokeColor=#FF0000;strokeWidth=2;edgeStyle=orthogonalEdgeStyle;exitX=1;exitY=0.25;exitDx=0;exitDy=0;entryX=0;entryY=0.25;entryDx=0;entryDy=0;" edge="1" parent="1" source="tBbX4ZN0eCfmYOymshVq-5" target="tBbX4ZN0eCfmYOymshVq-6">
          <mxGeometry width="50" height="50" relative="1" as="geometry">
            <mxPoint x="390" y="300" as="sourcePoint" />
            <mxPoint x="440" y="250" as="targetPoint" />
          </mxGeometry>
        </mxCell>
        <mxCell id="tBbX4ZN0eCfmYOymshVq-19" value="&lt;font color=&quot;#ff0000&quot;&gt;+&lt;/font&gt;" style="text;html=1;strokeColor=none;fillColor=none;align=center;verticalAlign=middle;whiteSpace=wrap;rounded=0;fontSize=24;" vertex="1" parent="1">
          <mxGeometry x="80" y="120" width="60" height="30" as="geometry" />
        </mxCell>
        <mxCell id="tBbX4ZN0eCfmYOymshVq-21" value="-" style="text;html=1;strokeColor=none;fillColor=none;align=center;verticalAlign=middle;whiteSpace=wrap;rounded=0;fontSize=24;" vertex="1" parent="1">
          <mxGeometry x="180" y="120" width="60" height="30" as="geometry" />
        </mxCell>
        <mxCell id="tBbX4ZN0eCfmYOymshVq-22" value="&lt;font color=&quot;#ff0000&quot;&gt;+&lt;/font&gt;" style="text;html=1;strokeColor=none;fillColor=none;align=center;verticalAlign=middle;whiteSpace=wrap;rounded=0;fontSize=24;" vertex="1" parent="1">
          <mxGeometry x="80" y="234" width="60" height="30" as="geometry" />
        </mxCell>
        <mxCell id="tBbX4ZN0eCfmYOymshVq-23" value="-" style="text;html=1;strokeColor=none;fillColor=none;align=center;verticalAlign=middle;whiteSpace=wrap;rounded=0;fontSize=24;" vertex="1" parent="1">
          <mxGeometry x="180" y="234" width="60" height="30" as="geometry" />
        </mxCell>
        <mxCell id="tBbX4ZN0eCfmYOymshVq-24" value="&lt;font color=&quot;#ff0000&quot;&gt;+&lt;/font&gt;" style="text;html=1;strokeColor=none;fillColor=none;align=center;verticalAlign=middle;whiteSpace=wrap;rounded=0;fontSize=24;" vertex="1" parent="1">
          <mxGeometry x="680" y="133" width="60" height="30" as="geometry" />
        </mxCell>
        <mxCell id="tBbX4ZN0eCfmYOymshVq-25" value="-" style="text;html=1;strokeColor=none;fillColor=none;align=center;verticalAlign=middle;whiteSpace=wrap;rounded=0;fontSize=24;" vertex="1" parent="1">
          <mxGeometry x="780" y="133" width="60" height="30" as="geometry" />
        </mxCell>
      </root>
    </mxGraphModel>
  </diagram>
</mxfile>
